<svg width="640" height="420" viewBox="0 0 640 420" fill="none" xmlns="http://www.w3.org/2000/svg">
  <defs>
    <linearGradient id="g" x1="0" y1="0" x2="640" y2="420" gradientUnits="userSpaceOnUse">
      <stop stop-color="#EAF2FF"/>
      <stop offset="1" stop-color="#F8FBFF"/>
    </linearGradient>
  </defs>
  <rect width="640" height="420" rx="24" fill="url(#g)"/>
  <rect x="70" y="70" width="500" height="280" rx="20" fill="#FFFFFF"/>
  <rect x="108" y="110" width="190" height="20" rx="10" fill="#D7E6FF"/>
  <rect x="108" y="144" width="140" height="16" rx="8" fill="#E6F0FF"/>
  <rect x="108" y="176" width="260" height="110" rx="14" fill="#F7FAFF" stroke="#DDE9FD"/>
  <rect x="128" y="200" width="222" height="12" rx="6" fill="#D2E2FF"/>
  <rect x="128" y="224" width="180" height="12" rx="6" fill="#C5DAFF"/>
  <rect x="128" y="248" width="156" height="12" rx="6" fill="#B9D1FF"/>
  <circle cx="450" cy="170" r="50" fill="#2F6DF6" fill-opacity="0.14"/>
  <path d="M474 171C474 158.85 464.15 149 452 149C439.85 149 430 158.85 430 171C430 183.15 439.85 193 452 193C464.15 193 474 183.15 474 171Z" fill="#2F6DF6"/>
  <rect x="410" y="204" width="84" height="48" rx="24" fill="#2F6DF6"/>
</svg>
