<svg width="640" height="420" viewBox="0 0 640 420" fill="none" xmlns="http://www.w3.org/2000/svg">
  <defs>
    <linearGradient id="bg" x1="0" y1="0" x2="640" y2="420" gradientUnits="userSpaceOnUse">
      <stop stop-color="#E8F1FF"/>
      <stop offset="1" stop-color="#F5F9FF"/>
    </linearGradient>
  </defs>
  <rect width="640" height="420" rx="24" fill="url(#bg)"/>
  <rect x="78" y="70" width="484" height="280" rx="20" fill="#FFFFFF"/>
  <rect x="120" y="112" width="210" height="20" rx="10" fill="#DCE8FB"/>
  <rect x="120" y="150" width="160" height="18" rx="9" fill="#E7F0FF"/>
  <rect x="120" y="185" width="128" height="18" rx="9" fill="#E7F0FF"/>
  <rect x="360" y="115" width="160" height="160" rx="80" fill="#2F6DF6" fill-opacity="0.12"/>
  <path d="M438 168C438 154.745 427.255 144 414 144C400.745 144 390 154.745 390 168C390 181.255 400.745 192 414 192C427.255 192 438 181.255 438 168Z" fill="#2F6DF6"/>
  <rect x="370" y="206" width="88" height="52" rx="26" fill="#2F6DF6"/>
  <rect x="120" y="238" width="240" height="70" rx="14" fill="#F6FAFF" stroke="#D8E6FB"/>
  <rect x="142" y="258" width="112" height="14" rx="7" fill="#CFE0FF"/>
  <rect x="264" y="258" width="70" height="14" rx="7" fill="#B8D1FF"/>
</svg>
